<svg xmlns="http://www.w3.org/2000/svg" width="1024" height="1024" viewBox="0 0 1024 1024" version="1.1">
	<path d="M 274.225 219.250 C 273.158 221.037, 269.555 227.900, 266.217 234.500 C 262.879 241.100, 248.869 268.550, 235.084 295.500 L 210.020 344.500 210.006 463 C 209.999 528.175, 209.698 597.362, 209.337 616.750 L 208.681 652 279.332 652 L 349.984 652 350.242 709.750 L 350.500 767.500 407 710.397 C 438.075 678.991, 464.175 653.015, 465 652.673 C 468.013 651.424, 499.753 651.057, 607.253 651.029 L 717.007 651 736.191 625.250 C 746.742 611.087, 769.111 581.050, 785.899 558.500 C 803.929 534.283, 816.376 516.681, 816.306 515.500 C 816.241 514.400, 814.145 502.475, 811.647 489 C 809.150 475.525, 805.495 455.275, 803.525 444 C 801.555 432.725, 796.370 404.825, 792.003 382 C 787.637 359.175, 780.891 323.400, 777.012 302.500 C 769.247 260.651, 762.223 223.016, 761.383 218.750 L 760.841 216 518.502 216 L 276.163 216 274.225 219.250 M 323.270 317.054 C 308.376 319.994, 296.868 332.203, 293.966 348.143 C 293.298 351.810, 293.037 385.092, 293.219 443.196 L 293.500 532.606 297.272 540.238 C 301.714 549.223, 307.531 554.852, 315.853 558.217 L 321.500 560.500 444 560.799 C 523.779 560.994, 569.198 560.740, 574.238 560.072 C 592.223 557.687, 603.606 546.180, 605.965 527.997 C 606.528 523.659, 606.951 483.995, 606.969 433.855 C 606.999 350.145, 606.933 346.993, 605.011 340.770 C 602.581 332.905, 598.535 327.133, 592.252 322.573 C 582.719 315.654, 589.978 315.988, 451.934 316.110 C 383.495 316.170, 325.596 316.595, 323.270 317.054 M 720 320.718 C 717.072 321.812, 657.218 357.161, 639.500 368.261 L 621.500 379.538 620.732 389.019 C 620.309 394.234, 620.084 418.214, 620.232 442.308 L 620.500 486.116 622.768 487.825 C 624.015 488.766, 645.783 502.065, 671.141 517.379 C 719.730 546.723, 722.334 547.977, 727.562 544.551 C 733.195 540.860, 733 544.885, 733 432.500 C 733 321.667, 733.090 323.724, 728.150 321.080 C 726.018 319.939, 722.504 319.783, 720 320.718 M 380.500 385.782 C 374.264 387.973, 366.839 393.033, 363.570 397.320 C 362.200 399.115, 359.851 403.265, 358.349 406.542 C 355.868 411.954, 355.529 414.147, 354.654 430.456 C 352.802 464.993, 357.650 478.566, 375.248 488.110 L 381.500 491.500 429.500 491.500 L 477.500 491.500 483.833 488.066 C 491.458 483.932, 498.205 476.555, 501.269 469 C 503.375 463.808, 503.500 462.070, 503.500 437.978 L 503.500 412.455 500.305 405.967 C 496.389 398.014, 489.398 390.840, 482.038 387.222 L 476.500 384.500 431 384.263 C 389.786 384.048, 385.029 384.191, 380.500 385.782" stroke="none" fill="#000000" fill-rule="evenodd"/>
</svg>